<svg width="75" height="32" viewBox="0 0 75 32" fill="none" xmlns="http://www.w3.org/2000/svg">
<g id="Group 81">
<rect id="Rectangle 40" width="75" height="32" rx="4" fill="#495EDC" fill-opacity="0.08"/>
<path id="Vector 8" d="M9 28L10.4934 16.8509C10.9232 13.642 12.4553 10.6824 14.8273 8.47887V8.47887L17.8111 6.33702C18.1164 6.11787 18.4827 6 18.8585 6V6C19.8505 6 20.6547 6.80417 20.6547 7.79616V8.00097C20.6547 8.31515 20.7287 8.62492 20.8706 8.9052L21.8008 10.7414C22.1864 11.5026 22.4788 12.3074 22.6718 13.1386L23.2929 15.8136C23.4042 16.2931 23.4604 16.7838 23.4604 17.2761V17.2761C23.4604 18.2168 23.6657 19.1463 24.0619 19.9996L24.6374 21.2388C24.7151 21.4062 24.7554 21.5886 24.7554 21.7732V22.083C24.7554 22.6128 25.1849 23.0423 25.7147 23.0423V23.0423C25.932 23.0423 26.1429 22.9684 26.3128 22.8329L26.8679 22.3902C27.5788 21.8232 27.9928 20.9634 27.9928 20.0541V17.7376C27.9928 16.9647 28.2851 16.2205 28.811 15.6542L29.3021 15.1254C29.5682 14.8389 29.9416 14.6761 30.3327 14.6761H30.4603C30.9298 14.6761 31.3567 14.4036 31.5545 13.9778V13.9778C31.8469 13.3481 32.6092 13.0945 33.2205 13.4236L35.3221 14.5551C35.4717 14.6356 35.6151 14.7271 35.7513 14.8287L40.8038 18.6007C40.896 18.6696 40.9819 18.7467 41.0602 18.831V18.831C42.106 19.9571 43.9859 19.4465 44.3184 17.9462L44.8356 15.6124C44.9709 15.0019 45.2843 14.4453 45.7361 14.0129L46.9856 12.8169V12.8169C48.3732 11.3681 50.5803 11.0759 52.2971 12.1137L52.3988 12.1751C53.0932 12.5949 53.6591 13.1972 54.0348 13.9164L54.4952 14.7976C55.0915 15.9391 55.4029 17.2078 55.4029 18.4956V18.7042V19.9979C55.4029 20.8236 56.0722 21.493 56.8979 21.493V21.493C57.5498 21.493 58.1265 21.0706 58.3233 20.4492L59.8565 15.6066C60.0515 14.9906 60.3484 14.4117 60.7348 13.8938L61.6387 12.6827C62.6708 11.2997 64.5031 10.7825 66.106 11.4218V11.4218C66.8642 11.7241 67.5053 12.2619 67.935 12.9559L68.2002 13.3843C68.723 14.2287 69 15.2022 69 16.1954V18.7042" stroke="#1A35DD" stroke-opacity="0.5" stroke-width="2"/>
</g>
</svg>
