<svg width="257" height="408" viewBox="0 0 257 408" fill="none" xmlns="http://www.w3.org/2000/svg">
<g opacity="0.3">
<line y1="-1" x2="12.4557" y2="-1" transform="matrix(-0.34202 -0.939693 -0.939693 0.34202 52.8203 13.0664)" stroke="#7D89B0" stroke-width="2"/>
<line y1="-1" x2="12.4557" y2="-1" transform="matrix(-0.5 -0.866025 -0.866025 0.5 26.2695 12.6777)" stroke="#7D89B0" stroke-width="2"/>
<line y1="-1" x2="12.4557" y2="-1" transform="matrix(-0.642788 -0.766044 -0.766044 0.642788 -0.421875 12.2881)" stroke="#7D89B0" stroke-width="2"/>
<line y1="-1" x2="12.4557" y2="-1" transform="matrix(0.766044 -0.642788 -0.642788 -0.766044 238.648 11.5098)" stroke="#7D89B0" stroke-width="2"/>
<line y1="-1" x2="12.4557" y2="-1" transform="matrix(0.642788 -0.766044 -0.766044 -0.642788 211.773 12.2881)" stroke="#7D89B0" stroke-width="2"/>
<line y1="-1" x2="12.4557" y2="-1" transform="matrix(0.5 -0.866025 -0.866025 -0.5 185.082 12.6777)" stroke="#7D89B0" stroke-width="2"/>
<line y1="-1" x2="12.4557" y2="-1" transform="matrix(0.34202 -0.939693 -0.939693 -0.34202 158.531 13.0664)" stroke="#7D89B0" stroke-width="2"/>
<line y1="-1" x2="12.4557" y2="-1" transform="matrix(0.173648 -0.984808 -0.984808 -0.173648 132.078 13.4561)" stroke="#7D89B0" stroke-width="2"/>
<line y1="-1" x2="12.4557" y2="-1" transform="matrix(0 -1 -1 0 105.676 13.4561)" stroke="#7D89B0" stroke-width="2"/>
<line y1="-1" x2="12.4557" y2="-1" transform="matrix(-0.173648 -0.984808 -0.984808 0.173648 79.2734 13.4561)" stroke="#7D89B0" stroke-width="2"/>
<line y1="-1" x2="12.4557" y2="-1" transform="matrix(-0.34202 -0.939693 -0.939693 0.34202 80.8438 34.8643)" stroke="#7D89B0" stroke-width="2"/>
<line y1="-1" x2="12.4557" y2="-1" transform="matrix(-0.5 -0.866025 -0.866025 0.5 54.2969 34.4746)" stroke="#7D89B0" stroke-width="2"/>
<line y1="-1" x2="12.4557" y2="-1" transform="matrix(-0.642788 -0.766044 -0.766044 0.642788 27.6055 34.0859)" stroke="#7D89B0" stroke-width="2"/>
<line y1="-1" x2="12.4557" y2="-1" transform="matrix(-0.766044 -0.642788 -0.642788 0.766044 0.730469 33.3076)" stroke="#7D89B0" stroke-width="2"/>
<line y1="-1" x2="12.4557" y2="-1" transform="matrix(0.642788 -0.766044 -0.766044 -0.642788 239.797 34.0859)" stroke="#7D89B0" stroke-width="2"/>
<line y1="-1" x2="12.4557" y2="-1" transform="matrix(0.5 -0.866025 -0.866025 -0.5 213.105 34.4746)" stroke="#7D89B0" stroke-width="2"/>
<line y1="-1" x2="12.4557" y2="-1" transform="matrix(0.34202 -0.939693 -0.939693 -0.34202 186.559 34.8643)" stroke="#7D89B0" stroke-width="2"/>
<line y1="-1" x2="12.4557" y2="-1" transform="matrix(0.173648 -0.984808 -0.984808 -0.173648 160.105 35.2529)" stroke="#7D89B0" stroke-width="2"/>
<line y1="-1" x2="12.4557" y2="-1" transform="matrix(0 -1 -1 0 133.703 35.2529)" stroke="#7D89B0" stroke-width="2"/>
<line y1="-1" x2="12.4557" y2="-1" transform="matrix(-0.173648 -0.984808 -0.984808 0.173648 107.297 35.2529)" stroke="#7D89B0" stroke-width="2"/>
<line y1="-1" x2="12.4557" y2="-1" transform="matrix(-0.34202 -0.939693 -0.939693 0.34202 108.871 56.6621)" stroke="#7D89B0" stroke-width="2"/>
<line y1="-1" x2="12.4557" y2="-1" transform="matrix(-0.5 -0.866025 -0.866025 0.5 82.3203 56.2725)" stroke="#7D89B0" stroke-width="2"/>
<line y1="-1" x2="12.4557" y2="-1" transform="matrix(-0.642788 -0.766044 -0.766044 0.642788 55.6289 55.8828)" stroke="#7D89B0" stroke-width="2"/>
<line y1="-1" x2="12.4557" y2="-1" transform="matrix(-0.766044 -0.642788 -0.642788 0.766044 28.7539 55.1045)" stroke="#7D89B0" stroke-width="2"/>
<line y1="-1" x2="12.4557" y2="-1" transform="matrix(-0.866025 -0.5 -0.5 0.866025 1.66406 53.9365)" stroke="#7D89B0" stroke-width="2"/>
<line y1="-1" x2="12.4557" y2="-1" transform="matrix(0.5 -0.866025 -0.866025 -0.5 241.133 56.2725)" stroke="#7D89B0" stroke-width="2"/>
<line y1="-1" x2="12.4557" y2="-1" transform="matrix(0.34202 -0.939693 -0.939693 -0.34202 214.582 56.6621)" stroke="#7D89B0" stroke-width="2"/>
<line y1="-1" x2="12.4557" y2="-1" transform="matrix(0.173648 -0.984808 -0.984808 -0.173648 188.129 57.0508)" stroke="#7D89B0" stroke-width="2"/>
<line y1="-1" x2="12.4557" y2="-1" transform="matrix(0 -1 -1 0 161.727 57.0508)" stroke="#7D89B0" stroke-width="2"/>
<line y1="-1" x2="12.4557" y2="-1" transform="matrix(-0.173648 -0.984808 -0.984808 0.173648 135.324 57.0508)" stroke="#7D89B0" stroke-width="2"/>
<line y1="-1" x2="12.4557" y2="-1" transform="matrix(-0.34202 -0.939693 -0.939693 0.34202 136.895 78.459)" stroke="#7D89B0" stroke-width="2"/>
<line y1="-1" x2="12.4557" y2="-1" transform="matrix(-0.5 -0.866025 -0.866025 0.5 110.348 78.0703)" stroke="#7D89B0" stroke-width="2"/>
<line y1="-1" x2="12.4557" y2="-1" transform="matrix(-0.642788 -0.766044 -0.766044 0.642788 83.6562 77.6807)" stroke="#7D89B0" stroke-width="2"/>
<line y1="-1" x2="12.4557" y2="-1" transform="matrix(-0.766044 -0.642788 -0.642788 0.766044 56.7812 76.9023)" stroke="#7D89B0" stroke-width="2"/>
<line y1="-1" x2="12.4557" y2="-1" transform="matrix(-0.866025 -0.5 -0.5 0.866025 29.6875 75.7344)" stroke="#7D89B0" stroke-width="2"/>
<line y1="-1" x2="12.4557" y2="-1" transform="matrix(-0.939693 -0.34202 -0.34202 0.939693 2.35156 74.9561)" stroke="#7D89B0" stroke-width="2"/>
<line y1="-1" x2="12.4557" y2="-1" transform="matrix(0.34202 -0.939693 -0.939693 -0.34202 242.609 78.459)" stroke="#7D89B0" stroke-width="2"/>
<line y1="-1" x2="12.4557" y2="-1" transform="matrix(0.173648 -0.984808 -0.984808 -0.173648 216.156 78.8486)" stroke="#7D89B0" stroke-width="2"/>
<line y1="-1" x2="12.4557" y2="-1" transform="matrix(0 -1 -1 0 189.754 78.8486)" stroke="#7D89B0" stroke-width="2"/>
<line y1="-1" x2="12.4557" y2="-1" transform="matrix(-0.173648 -0.984808 -0.984808 0.173648 163.348 78.8486)" stroke="#7D89B0" stroke-width="2"/>
<line y1="-1" x2="12.4557" y2="-1" transform="matrix(-0.34202 -0.939693 -0.939693 0.34202 164.922 100.257)" stroke="#7D89B0" stroke-width="2"/>
<line y1="-1" x2="12.4557" y2="-1" transform="matrix(-0.5 -0.866025 -0.866025 0.5 138.371 99.8672)" stroke="#7D89B0" stroke-width="2"/>
<line y1="-1" x2="12.4557" y2="-1" transform="matrix(-0.642788 -0.766044 -0.766044 0.642788 111.68 99.4785)" stroke="#7D89B0" stroke-width="2"/>
<line y1="-1" x2="12.4557" y2="-1" transform="matrix(-0.766044 -0.642788 -0.642788 0.766044 84.8047 98.6992)" stroke="#7D89B0" stroke-width="2"/>
<line y1="-1" x2="12.4557" y2="-1" transform="matrix(-0.866025 -0.5 -0.5 0.866025 57.7148 97.5322)" stroke="#7D89B0" stroke-width="2"/>
<line y1="-1" x2="12.4557" y2="-1" transform="matrix(-0.939693 -0.34202 -0.34202 0.939693 30.3789 96.7529)" stroke="#7D89B0" stroke-width="2"/>
<line y1="-1" x2="12.4557" y2="-1" transform="matrix(-0.984808 -0.173648 -0.173648 0.984808 2.77344 95.5859)" stroke="#7D89B0" stroke-width="2"/>
<line y1="-1" x2="12.4557" y2="-1" transform="matrix(0.173648 -0.984808 -0.984808 -0.173648 244.18 100.646)" stroke="#7D89B0" stroke-width="2"/>
<line y1="-1" x2="12.4557" y2="-1" transform="matrix(0 -1 -1 0 217.777 100.646)" stroke="#7D89B0" stroke-width="2"/>
<line y1="-1" x2="12.4557" y2="-1" transform="matrix(-0.173648 -0.984808 -0.984808 0.173648 191.375 100.646)" stroke="#7D89B0" stroke-width="2"/>
<line y1="-1" x2="12.4557" y2="-1" transform="matrix(-0.34202 -0.939693 -0.939693 0.34202 192.945 122.054)" stroke="#7D89B0" stroke-width="2"/>
<line y1="-1" x2="12.4557" y2="-1" transform="matrix(-0.5 -0.866025 -0.866025 0.5 166.398 121.665)" stroke="#7D89B0" stroke-width="2"/>
<line y1="-1" x2="12.4557" y2="-1" transform="matrix(-0.642788 -0.766044 -0.766044 0.642788 139.707 121.275)" stroke="#7D89B0" stroke-width="2"/>
<line y1="-1" x2="12.4557" y2="-1" transform="matrix(-0.766044 -0.642788 -0.642788 0.766044 112.832 120.497)" stroke="#7D89B0" stroke-width="2"/>
<line y1="-1" x2="12.4557" y2="-1" transform="matrix(-0.866025 -0.5 -0.5 0.866025 85.7383 119.329)" stroke="#7D89B0" stroke-width="2"/>
<line y1="-1" x2="12.4557" y2="-1" transform="matrix(-0.939693 -0.34202 -0.34202 0.939693 58.4023 118.551)" stroke="#7D89B0" stroke-width="2"/>
<line y1="-1" x2="12.4557" y2="-1" transform="matrix(-0.984808 -0.173648 -0.173648 0.984808 30.7969 117.383)" stroke="#7D89B0" stroke-width="2"/>
<line y1="-1" x2="12.4557" y2="-1" transform="matrix(0 -1 -1 0 245.805 122.443)" stroke="#7D89B0" stroke-width="2"/>
<line y1="-1" x2="12.4557" y2="-1" transform="matrix(-0.173648 -0.984808 -0.984808 0.173648 219.398 122.443)" stroke="#7D89B0" stroke-width="2"/>
<line y1="-1" x2="12.4557" y2="-1" transform="matrix(-0.34202 -0.939693 -0.939693 0.34202 220.973 143.852)" stroke="#7D89B0" stroke-width="2"/>
<line y1="-1" x2="12.4557" y2="-1" transform="matrix(-0.5 -0.866025 -0.866025 0.5 194.422 143.462)" stroke="#7D89B0" stroke-width="2"/>
<line y1="-1" x2="12.4557" y2="-1" transform="matrix(-0.642788 -0.766044 -0.766044 0.642788 167.73 143.073)" stroke="#7D89B0" stroke-width="2"/>
<line y1="-1" x2="12.4557" y2="-1" transform="matrix(-0.766044 -0.642788 -0.642788 0.766044 140.855 142.295)" stroke="#7D89B0" stroke-width="2"/>
<line y1="-1" x2="12.4557" y2="-1" transform="matrix(-0.866025 -0.5 -0.5 0.866025 113.766 141.127)" stroke="#7D89B0" stroke-width="2"/>
<line y1="-1" x2="12.4557" y2="-1" transform="matrix(-0.939693 -0.34202 -0.34202 0.939693 86.4297 140.349)" stroke="#7D89B0" stroke-width="2"/>
<line y1="-1" x2="12.4557" y2="-1" transform="matrix(-0.984808 -0.173648 -0.173648 0.984808 58.8242 139.181)" stroke="#7D89B0" stroke-width="2"/>
<line y1="-1" x2="12.4557" y2="-1" transform="matrix(-0.173648 -0.984808 -0.984808 0.173648 247.426 144.241)" stroke="#7D89B0" stroke-width="2"/>
<line y1="-1" x2="12.4557" y2="-1" transform="matrix(1 0 0 -1 15.3711 138.013)" stroke="#7D89B0" stroke-width="2"/>
<line y1="-1" x2="12.4557" y2="-1" transform="matrix(0.984808 -0.173648 -0.173648 -0.984808 -12.5117 139.181)" stroke="#7D89B0" stroke-width="2"/>
<line y1="-1" x2="12.4557" y2="-1" transform="matrix(-0.34202 -0.939693 -0.939693 0.34202 248.996 165.649)" stroke="#7D89B0" stroke-width="2"/>
<line y1="-1" x2="12.4557" y2="-1" transform="matrix(-0.5 -0.866025 -0.866025 0.5 222.449 165.26)" stroke="#7D89B0" stroke-width="2"/>
<line y1="-1" x2="12.4557" y2="-1" transform="matrix(-0.642788 -0.766044 -0.766044 0.642788 195.758 164.87)" stroke="#7D89B0" stroke-width="2"/>
<line y1="-1" x2="12.4557" y2="-1" transform="matrix(-0.766044 -0.642788 -0.642788 0.766044 168.883 164.092)" stroke="#7D89B0" stroke-width="2"/>
<line y1="-1" x2="12.4557" y2="-1" transform="matrix(-0.866025 -0.5 -0.5 0.866025 141.789 162.924)" stroke="#7D89B0" stroke-width="2"/>
<line y1="-1" x2="12.4557" y2="-1" transform="matrix(-0.939693 -0.34202 -0.34202 0.939693 114.453 162.146)" stroke="#7D89B0" stroke-width="2"/>
<line y1="-1" x2="12.4557" y2="-1" transform="matrix(-0.984808 -0.173648 -0.173648 0.984808 86.8477 160.979)" stroke="#7D89B0" stroke-width="2"/>
<line y1="-1" x2="12.4557" y2="-1" transform="matrix(1 0 0 -1 43.3945 159.811)" stroke="#7D89B0" stroke-width="2"/>
<line y1="-1" x2="12.4557" y2="-1" transform="matrix(0.984808 -0.173648 -0.173648 -0.984808 15.5117 160.979)" stroke="#7D89B0" stroke-width="2"/>
<line y1="-1" x2="12.4557" y2="-1" transform="matrix(0.939693 -0.34202 -0.34202 -0.939693 -12.0898 162.146)" stroke="#7D89B0" stroke-width="2"/>
<line y1="-1" x2="12.4557" y2="-1" transform="matrix(-0.5 -0.866025 -0.866025 0.5 250.473 187.058)" stroke="#7D89B0" stroke-width="2"/>
<line y1="-1" x2="12.4557" y2="-1" transform="matrix(-0.642788 -0.766044 -0.766044 0.642788 223.781 186.668)" stroke="#7D89B0" stroke-width="2"/>
<line y1="-1" x2="12.4557" y2="-1" transform="matrix(-0.766044 -0.642788 -0.642788 0.766044 196.906 185.89)" stroke="#7D89B0" stroke-width="2"/>
<line y1="-1" x2="12.4557" y2="-1" transform="matrix(-0.866025 -0.5 -0.5 0.866025 169.816 184.722)" stroke="#7D89B0" stroke-width="2"/>
<line y1="-1" x2="12.4557" y2="-1" transform="matrix(-0.939693 -0.34202 -0.34202 0.939693 142.48 183.943)" stroke="#7D89B0" stroke-width="2"/>
<line y1="-1" x2="12.4557" y2="-1" transform="matrix(-0.984808 -0.173648 -0.173648 0.984808 114.875 182.775)" stroke="#7D89B0" stroke-width="2"/>
<line y1="-1" x2="12.4557" y2="-1" transform="matrix(0.866025 -0.5 -0.5 -0.866025 -11.4023 184.722)" stroke="#7D89B0" stroke-width="2"/>
<line y1="-1" x2="12.4557" y2="-1" transform="matrix(1 0 0 -1 71.4219 181.607)" stroke="#7D89B0" stroke-width="2"/>
<line y1="-1" x2="12.4557" y2="-1" transform="matrix(0.984808 -0.173648 -0.173648 -0.984808 43.5391 182.775)" stroke="#7D89B0" stroke-width="2"/>
<line y1="-1" x2="12.4557" y2="-1" transform="matrix(0.939693 -0.34202 -0.34202 -0.939693 15.9336 183.943)" stroke="#7D89B0" stroke-width="2"/>
<line y1="-1" x2="12.4557" y2="-1" transform="matrix(-0.642788 -0.766044 -0.766044 0.642788 251.809 208.466)" stroke="#7D89B0" stroke-width="2"/>
<line y1="-1" x2="12.4557" y2="-1" transform="matrix(-0.766044 -0.642788 -0.642788 0.766044 224.934 207.687)" stroke="#7D89B0" stroke-width="2"/>
<line y1="-1" x2="12.4557" y2="-1" transform="matrix(-0.866025 -0.5 -0.5 0.866025 197.84 206.52)" stroke="#7D89B0" stroke-width="2"/>
<line y1="-1" x2="12.4557" y2="-1" transform="matrix(-0.939693 -0.34202 -0.34202 0.939693 170.504 205.741)" stroke="#7D89B0" stroke-width="2"/>
<line y1="-1" x2="12.4557" y2="-1" transform="matrix(-0.984808 -0.173648 -0.173648 0.984808 142.898 204.573)" stroke="#7D89B0" stroke-width="2"/>
<line y1="-1" x2="12.4557" y2="-1" transform="matrix(0.866025 -0.5 -0.5 -0.866025 16.6211 206.52)" stroke="#7D89B0" stroke-width="2"/>
<line y1="-1" x2="12.4557" y2="-1" transform="matrix(0.766044 -0.642788 -0.642788 -0.766044 -10.4688 207.687)" stroke="#7D89B0" stroke-width="2"/>
<line y1="-1" x2="12.4557" y2="-1" transform="matrix(1 0 0 -1 99.4453 203.405)" stroke="#7D89B0" stroke-width="2"/>
<line y1="-1" x2="12.4557" y2="-1" transform="matrix(0.984808 -0.173648 -0.173648 -0.984808 71.5625 204.573)" stroke="#7D89B0" stroke-width="2"/>
<line y1="-1" x2="12.4557" y2="-1" transform="matrix(0.939693 -0.34202 -0.34202 -0.939693 43.957 205.741)" stroke="#7D89B0" stroke-width="2"/>
<line y1="-1" x2="12.4557" y2="-1" transform="matrix(-0.766044 -0.642788 -0.642788 0.766044 252.957 229.484)" stroke="#7D89B0" stroke-width="2"/>
<line y1="-1" x2="12.4557" y2="-1" transform="matrix(-0.866025 -0.5 -0.5 0.866025 225.867 228.316)" stroke="#7D89B0" stroke-width="2"/>
<line y1="-1" x2="12.4557" y2="-1" transform="matrix(-0.939693 -0.34202 -0.34202 0.939693 198.531 227.538)" stroke="#7D89B0" stroke-width="2"/>
<line y1="-1" x2="12.4557" y2="-1" transform="matrix(-0.984808 -0.173648 -0.173648 0.984808 170.926 226.37)" stroke="#7D89B0" stroke-width="2"/>
<line y1="-1" x2="12.4557" y2="-1" transform="matrix(0.866025 -0.5 -0.5 -0.866025 44.6484 228.316)" stroke="#7D89B0" stroke-width="2"/>
<line y1="-1" x2="12.4557" y2="-1" transform="matrix(0.766044 -0.642788 -0.642788 -0.766044 17.5547 229.484)" stroke="#7D89B0" stroke-width="2"/>
<line y1="-1" x2="12.4557" y2="-1" transform="matrix(0.642788 -0.766044 -0.766044 -0.642788 -9.31641 230.263)" stroke="#7D89B0" stroke-width="2"/>
<line y1="-1" x2="12.4557" y2="-1" transform="matrix(1 0 0 -1 127.473 225.203)" stroke="#7D89B0" stroke-width="2"/>
<line y1="-1" x2="12.4557" y2="-1" transform="matrix(0.984808 -0.173648 -0.173648 -0.984808 99.5898 226.37)" stroke="#7D89B0" stroke-width="2"/>
<line y1="-1" x2="12.4557" y2="-1" transform="matrix(0.939693 -0.34202 -0.34202 -0.939693 71.9844 227.538)" stroke="#7D89B0" stroke-width="2"/>
<line y1="-1" x2="12.4557" y2="-1" transform="matrix(-0.866025 -0.5 -0.5 0.866025 253.891 250.114)" stroke="#7D89B0" stroke-width="2"/>
<line y1="-1" x2="12.4557" y2="-1" transform="matrix(-0.939693 -0.34202 -0.34202 0.939693 226.555 249.336)" stroke="#7D89B0" stroke-width="2"/>
<line y1="-1" x2="12.4557" y2="-1" transform="matrix(-0.984808 -0.173648 -0.173648 0.984808 198.949 248.168)" stroke="#7D89B0" stroke-width="2"/>
<line y1="-1" x2="12.4557" y2="-1" transform="matrix(0.866025 -0.5 -0.5 -0.866025 72.6719 250.114)" stroke="#7D89B0" stroke-width="2"/>
<line y1="-1" x2="12.4557" y2="-1" transform="matrix(0.766044 -0.642788 -0.642788 -0.766044 45.582 251.282)" stroke="#7D89B0" stroke-width="2"/>
<line y1="-1" x2="12.4557" y2="-1" transform="matrix(0.642788 -0.766044 -0.766044 -0.642788 18.707 252.061)" stroke="#7D89B0" stroke-width="2"/>
<line y1="-1" x2="12.4557" y2="-1" transform="matrix(1 0 0 -1 155.496 247)" stroke="#7D89B0" stroke-width="2"/>
<line y1="-1" x2="12.4557" y2="-1" transform="matrix(0.984808 -0.173648 -0.173648 -0.984808 127.613 248.168)" stroke="#7D89B0" stroke-width="2"/>
<line y1="-1" x2="12.4557" y2="-1" transform="matrix(0.939693 -0.34202 -0.34202 -0.939693 100.008 249.336)" stroke="#7D89B0" stroke-width="2"/>
<line y1="-1" x2="12.4557" y2="-1" transform="matrix(-0.939693 -0.34202 -0.34202 0.939693 254.582 271.133)" stroke="#7D89B0" stroke-width="2"/>
<line y1="-1" x2="12.4557" y2="-1" transform="matrix(-0.984808 -0.173648 -0.173648 0.984808 226.977 269.966)" stroke="#7D89B0" stroke-width="2"/>
<line y1="-1" x2="12.4557" y2="-1" transform="matrix(0.866025 -0.5 -0.5 -0.866025 100.699 271.912)" stroke="#7D89B0" stroke-width="2"/>
<line y1="-1" x2="12.4557" y2="-1" transform="matrix(0.766044 -0.642788 -0.642788 -0.766044 73.6055 273.079)" stroke="#7D89B0" stroke-width="2"/>
<line y1="-1" x2="12.4557" y2="-1" transform="matrix(0.642788 -0.766044 -0.766044 -0.642788 46.7305 273.857)" stroke="#7D89B0" stroke-width="2"/>
<line y1="-1" x2="12.4557" y2="-1" transform="matrix(0.5 -0.866025 -0.866025 -0.5 20.0391 274.247)" stroke="#7D89B0" stroke-width="2"/>
<line y1="-1" x2="12.4557" y2="-1" transform="matrix(1 0 0 -1 183.523 268.798)" stroke="#7D89B0" stroke-width="2"/>
<line y1="-1" x2="12.4557" y2="-1" transform="matrix(0.984808 -0.173648 -0.173648 -0.984808 155.641 269.966)" stroke="#7D89B0" stroke-width="2"/>
<line y1="-1" x2="12.4557" y2="-1" transform="matrix(0.939693 -0.34202 -0.34202 -0.939693 128.035 271.133)" stroke="#7D89B0" stroke-width="2"/>
<line y1="-1" x2="12.4557" y2="-1" transform="matrix(-0.984808 -0.173648 -0.173648 0.984808 255 291.763)" stroke="#7D89B0" stroke-width="2"/>
<line y1="-1" x2="12.4557" y2="-1" transform="matrix(0.866025 -0.5 -0.5 -0.866025 128.723 293.709)" stroke="#7D89B0" stroke-width="2"/>
<line y1="-1" x2="12.4557" y2="-1" transform="matrix(0.766044 -0.642788 -0.642788 -0.766044 101.633 294.877)" stroke="#7D89B0" stroke-width="2"/>
<line y1="-1" x2="12.4557" y2="-1" transform="matrix(0.642788 -0.766044 -0.766044 -0.642788 74.7578 295.655)" stroke="#7D89B0" stroke-width="2"/>
<line y1="-1" x2="12.4557" y2="-1" transform="matrix(0.5 -0.866025 -0.866025 -0.5 48.0664 296.045)" stroke="#7D89B0" stroke-width="2"/>
<line y1="-1" x2="12.4557" y2="-1" transform="matrix(0.34202 -0.939693 -0.939693 -0.34202 21.5156 296.434)" stroke="#7D89B0" stroke-width="2"/>
<line y1="-1" x2="12.4557" y2="-1" transform="matrix(1 0 0 -1 211.547 290.595)" stroke="#7D89B0" stroke-width="2"/>
<line y1="-1" x2="12.4557" y2="-1" transform="matrix(0.984808 -0.173648 -0.173648 -0.984808 183.664 291.763)" stroke="#7D89B0" stroke-width="2"/>
<line y1="-1" x2="12.4557" y2="-1" transform="matrix(0.939693 -0.34202 -0.34202 -0.939693 156.059 292.931)" stroke="#7D89B0" stroke-width="2"/>
<line y1="-1" x2="12.4557" y2="-1" transform="matrix(0.866025 -0.5 -0.5 -0.866025 156.75 315.507)" stroke="#7D89B0" stroke-width="2"/>
<line y1="-1" x2="12.4557" y2="-1" transform="matrix(0.766044 -0.642788 -0.642788 -0.766044 129.656 316.674)" stroke="#7D89B0" stroke-width="2"/>
<line y1="-1" x2="12.4557" y2="-1" transform="matrix(0.642788 -0.766044 -0.766044 -0.642788 102.781 317.453)" stroke="#7D89B0" stroke-width="2"/>
<line y1="-1" x2="12.4557" y2="-1" transform="matrix(0.5 -0.866025 -0.866025 -0.5 76.0898 317.842)" stroke="#7D89B0" stroke-width="2"/>
<line y1="-1" x2="12.4557" y2="-1" transform="matrix(0.34202 -0.939693 -0.939693 -0.34202 49.543 318.231)" stroke="#7D89B0" stroke-width="2"/>
<line y1="-1" x2="12.4557" y2="-1" transform="matrix(0.173648 -0.984808 -0.984808 -0.173648 23.0898 318.62)" stroke="#7D89B0" stroke-width="2"/>
<line y1="-1" x2="12.4557" y2="-1" transform="matrix(1 0 0 -1 239.574 312.393)" stroke="#7D89B0" stroke-width="2"/>
<line y1="-1" x2="12.4557" y2="-1" transform="matrix(0.984808 -0.173648 -0.173648 -0.984808 211.691 313.561)" stroke="#7D89B0" stroke-width="2"/>
<line y1="-1" x2="12.4557" y2="-1" transform="matrix(0.939693 -0.34202 -0.34202 -0.939693 184.086 314.729)" stroke="#7D89B0" stroke-width="2"/>
<line y1="-1" x2="12.4557" y2="-1" transform="matrix(0.866025 -0.5 -0.5 -0.866025 184.773 337.304)" stroke="#7D89B0" stroke-width="2"/>
<line y1="-1" x2="12.4557" y2="-1" transform="matrix(0.766044 -0.642788 -0.642788 -0.766044 157.684 338.472)" stroke="#7D89B0" stroke-width="2"/>
<line y1="-1" x2="12.4557" y2="-1" transform="matrix(0.642788 -0.766044 -0.766044 -0.642788 130.809 339.25)" stroke="#7D89B0" stroke-width="2"/>
<line y1="-1" x2="12.4557" y2="-1" transform="matrix(0.5 -0.866025 -0.866025 -0.5 104.117 339.64)" stroke="#7D89B0" stroke-width="2"/>
<line y1="-1" x2="12.4557" y2="-1" transform="matrix(0.34202 -0.939693 -0.939693 -0.34202 77.5664 340.028)" stroke="#7D89B0" stroke-width="2"/>
<line y1="-1" x2="12.4557" y2="-1" transform="matrix(0.173648 -0.984808 -0.984808 -0.173648 51.1133 340.418)" stroke="#7D89B0" stroke-width="2"/>
<line y1="-1" x2="12.4557" y2="-1" transform="matrix(0 -1 -1 0 24.7109 340.418)" stroke="#7D89B0" stroke-width="2"/>
<line y1="-1" x2="12.4557" y2="-1" transform="matrix(-0.173648 -0.984808 -0.984808 0.173648 -1.69141 340.418)" stroke="#7D89B0" stroke-width="2"/>
<line y1="-1" x2="12.4557" y2="-1" transform="matrix(0.984808 -0.173648 -0.173648 -0.984808 239.715 335.357)" stroke="#7D89B0" stroke-width="2"/>
<line y1="-1" x2="12.4557" y2="-1" transform="matrix(0.939693 -0.34202 -0.34202 -0.939693 212.109 336.525)" stroke="#7D89B0" stroke-width="2"/>
<line y1="-1" x2="12.4557" y2="-1" transform="matrix(-0.34202 -0.939693 -0.939693 0.34202 -0.121094 361.826)" stroke="#7D89B0" stroke-width="2"/>
<line y1="-1" x2="12.4557" y2="-1" transform="matrix(0.866025 -0.5 -0.5 -0.866025 212.801 359.102)" stroke="#7D89B0" stroke-width="2"/>
<line y1="-1" x2="12.4557" y2="-1" transform="matrix(0.766044 -0.642788 -0.642788 -0.766044 185.707 360.27)" stroke="#7D89B0" stroke-width="2"/>
<line y1="-1" x2="12.4557" y2="-1" transform="matrix(0.642788 -0.766044 -0.766044 -0.642788 158.832 361.048)" stroke="#7D89B0" stroke-width="2"/>
<line y1="-1" x2="12.4557" y2="-1" transform="matrix(0.5 -0.866025 -0.866025 -0.5 132.141 361.437)" stroke="#7D89B0" stroke-width="2"/>
<line y1="-1" x2="12.4557" y2="-1" transform="matrix(0.34202 -0.939693 -0.939693 -0.34202 105.594 361.826)" stroke="#7D89B0" stroke-width="2"/>
<line y1="-1" x2="12.4557" y2="-1" transform="matrix(0.173648 -0.984808 -0.984808 -0.173648 79.1406 362.216)" stroke="#7D89B0" stroke-width="2"/>
<line y1="-1" x2="12.4557" y2="-1" transform="matrix(0 -1 -1 0 52.7383 362.216)" stroke="#7D89B0" stroke-width="2"/>
<line y1="-1" x2="12.4557" y2="-1" transform="matrix(-0.173648 -0.984808 -0.984808 0.173648 26.332 362.216)" stroke="#7D89B0" stroke-width="2"/>
<line y1="-1" x2="12.4557" y2="-1" transform="matrix(0.939693 -0.34202 -0.34202 -0.939693 240.137 358.323)" stroke="#7D89B0" stroke-width="2"/>
<line y1="-1" x2="12.4557" y2="-1" transform="matrix(-0.34202 -0.939693 -0.939693 0.34202 27.9062 383.624)" stroke="#7D89B0" stroke-width="2"/>
<line y1="-1" x2="12.4557" y2="-1" transform="matrix(-0.5 -0.866025 -0.866025 0.5 1.35547 383.234)" stroke="#7D89B0" stroke-width="2"/>
<line y1="-1" x2="12.4557" y2="-1" transform="matrix(0.866025 -0.5 -0.5 -0.866025 240.824 380.899)" stroke="#7D89B0" stroke-width="2"/>
<line y1="-1" x2="12.4557" y2="-1" transform="matrix(0.766044 -0.642788 -0.642788 -0.766044 213.734 382.066)" stroke="#7D89B0" stroke-width="2"/>
<line y1="-1" x2="12.4557" y2="-1" transform="matrix(0.642788 -0.766044 -0.766044 -0.642788 186.859 382.845)" stroke="#7D89B0" stroke-width="2"/>
<line y1="-1" x2="12.4557" y2="-1" transform="matrix(0.5 -0.866025 -0.866025 -0.5 160.168 383.234)" stroke="#7D89B0" stroke-width="2"/>
<line y1="-1" x2="12.4557" y2="-1" transform="matrix(0.34202 -0.939693 -0.939693 -0.34202 133.617 383.624)" stroke="#7D89B0" stroke-width="2"/>
<line y1="-1" x2="12.4557" y2="-1" transform="matrix(0.173648 -0.984808 -0.984808 -0.173648 107.164 384.013)" stroke="#7D89B0" stroke-width="2"/>
<line y1="-1" x2="12.4557" y2="-1" transform="matrix(0 -1 -1 0 80.7617 384.013)" stroke="#7D89B0" stroke-width="2"/>
<line y1="-1" x2="12.4557" y2="-1" transform="matrix(-0.173648 -0.984808 -0.984808 0.173648 54.3594 384.013)" stroke="#7D89B0" stroke-width="2"/>
<line y1="-1" x2="12.4557" y2="-1" transform="matrix(-0.34202 -0.939693 -0.939693 0.34202 55.9297 405.421)" stroke="#7D89B0" stroke-width="2"/>
<line y1="-1" x2="12.4557" y2="-1" transform="matrix(-0.5 -0.866025 -0.866025 0.5 29.3828 405.032)" stroke="#7D89B0" stroke-width="2"/>
<line y1="-1" x2="12.4557" y2="-1" transform="matrix(-0.642788 -0.766044 -0.766044 0.642788 2.69141 404.643)" stroke="#7D89B0" stroke-width="2"/>
<line y1="-1" x2="12.4557" y2="-1" transform="matrix(0.766044 -0.642788 -0.642788 -0.766044 241.758 403.864)" stroke="#7D89B0" stroke-width="2"/>
<line y1="-1" x2="12.4557" y2="-1" transform="matrix(0.642788 -0.766044 -0.766044 -0.642788 214.883 404.643)" stroke="#7D89B0" stroke-width="2"/>
<line y1="-1" x2="12.4557" y2="-1" transform="matrix(0.5 -0.866025 -0.866025 -0.5 188.191 405.032)" stroke="#7D89B0" stroke-width="2"/>
<line y1="-1" x2="12.4557" y2="-1" transform="matrix(0.34202 -0.939693 -0.939693 -0.34202 161.645 405.421)" stroke="#7D89B0" stroke-width="2"/>
<line y1="-1" x2="12.4557" y2="-1" transform="matrix(0.173648 -0.984808 -0.984808 -0.173648 135.191 405.811)" stroke="#7D89B0" stroke-width="2"/>
<line y1="-1" x2="12.4557" y2="-1" transform="matrix(0 -1 -1 0 108.789 405.811)" stroke="#7D89B0" stroke-width="2"/>
<line y1="-1" x2="12.4557" y2="-1" transform="matrix(-0.173648 -0.984808 -0.984808 0.173648 82.3828 405.811)" stroke="#7D89B0" stroke-width="2"/>
</g>
</svg>
