<svg width="298" height="328" viewBox="0 0 298 328" fill="none" xmlns="http://www.w3.org/2000/svg">
<g opacity="0.3">
<line x1="91.1384" y1="19.9148" x2="95.3985" y2="8.21029" stroke="#7D89B0" stroke-width="2"/>
<line x1="117.763" y1="19.3672" x2="123.991" y2="8.58024" stroke="#7D89B0" stroke-width="2"/>
<line x1="144.554" y1="18.8357" x2="152.561" y2="9.29411" stroke="#7D89B0" stroke-width="2"/>
<line x1="171.553" y1="17.9332" x2="181.094" y2="9.92681" stroke="#7D89B0" stroke-width="2"/>
<line x1="198.785" y1="16.6662" x2="209.572" y2="10.4384" stroke="#7D89B0" stroke-width="2"/>
<line x1="226.279" y1="15.8132" x2="237.984" y2="11.5531" stroke="#7D89B0" stroke-width="2"/>
<line x1="254.053" y1="14.6011" x2="266.319" y2="12.4382" stroke="#7D89B0" stroke-width="2"/>
<line x1="11.8355" y1="20.8192" x2="9.6726" y2="8.55269" stroke="#7D89B0" stroke-width="2"/>
<line x1="38.2227" y1="20.6455" x2="38.2227" y2="8.18981" stroke="#7D89B0" stroke-width="2"/>
<line x1="64.6402" y1="20.4719" x2="66.8031" y2="8.20539" stroke="#7D89B0" stroke-width="2"/>
<line x1="297.68" y1="15.418" x2="285.224" y2="15.418" stroke="#7D89B0" stroke-width="2"/>
<line x1="63.115" y1="41.7117" x2="67.3751" y2="30.0072" stroke="#7D89B0" stroke-width="2"/>
<line x1="89.7355" y1="41.165" x2="95.9634" y2="30.3781" stroke="#7D89B0" stroke-width="2"/>
<line x1="116.527" y1="40.6326" x2="124.533" y2="31.091" stroke="#7D89B0" stroke-width="2"/>
<line x1="143.525" y1="39.731" x2="153.067" y2="31.7247" stroke="#7D89B0" stroke-width="2"/>
<line x1="170.762" y1="38.4631" x2="181.549" y2="32.2352" stroke="#7D89B0" stroke-width="2"/>
<line x1="198.256" y1="37.6111" x2="209.96" y2="33.351" stroke="#7D89B0" stroke-width="2"/>
<line x1="226.029" y1="36.398" x2="238.296" y2="34.2351" stroke="#7D89B0" stroke-width="2"/>
<line x1="10.1953" y1="42.4434" x2="10.1953" y2="29.9877" stroke="#7D89B0" stroke-width="2"/>
<line x1="36.6168" y1="42.2697" x2="38.7797" y2="30.0032" stroke="#7D89B0" stroke-width="2"/>
<line x1="269.652" y1="37.2158" x2="257.197" y2="37.2158" stroke="#7D89B0" stroke-width="2"/>
<line x1="297.365" y1="38.3676" x2="285.099" y2="36.2047" stroke="#7D89B0" stroke-width="2"/>
<line x1="35.0877" y1="63.5095" x2="39.3478" y2="51.805" stroke="#7D89B0" stroke-width="2"/>
<line x1="61.7121" y1="62.9619" x2="67.9399" y2="52.175" stroke="#7D89B0" stroke-width="2"/>
<line x1="88.5035" y1="62.4305" x2="96.5099" y2="52.8888" stroke="#7D89B0" stroke-width="2"/>
<line x1="115.502" y1="61.5289" x2="125.043" y2="53.5225" stroke="#7D89B0" stroke-width="2"/>
<line x1="142.734" y1="60.2609" x2="153.521" y2="54.0331" stroke="#7D89B0" stroke-width="2"/>
<line x1="170.228" y1="59.4089" x2="181.933" y2="55.1488" stroke="#7D89B0" stroke-width="2"/>
<line x1="198.002" y1="58.1959" x2="210.269" y2="56.0329" stroke="#7D89B0" stroke-width="2"/>
<line x1="8.58941" y1="64.0676" x2="10.7523" y2="51.8011" stroke="#7D89B0" stroke-width="2"/>
<line x1="241.629" y1="59.0127" x2="229.173" y2="59.0127" stroke="#7D89B0" stroke-width="2"/>
<line x1="269.338" y1="60.1655" x2="257.072" y2="58.0026" stroke="#7D89B0" stroke-width="2"/>
<line x1="296.775" y1="61.2883" x2="285.071" y2="57.0282" stroke="#7D89B0" stroke-width="2"/>
<line x1="7.06421" y1="85.3074" x2="11.3243" y2="73.6029" stroke="#7D89B0" stroke-width="2"/>
<line x1="33.6848" y1="84.7598" x2="39.9126" y2="73.9728" stroke="#7D89B0" stroke-width="2"/>
<line x1="60.4761" y1="84.2273" x2="68.4825" y2="74.6857" stroke="#7D89B0" stroke-width="2"/>
<line x1="87.4744" y1="83.3258" x2="97.016" y2="75.3194" stroke="#7D89B0" stroke-width="2"/>
<line x1="114.711" y1="82.0578" x2="125.498" y2="75.83" stroke="#7D89B0" stroke-width="2"/>
<line x1="142.205" y1="81.2058" x2="153.909" y2="76.9457" stroke="#7D89B0" stroke-width="2"/>
<line x1="169.979" y1="79.9937" x2="182.245" y2="77.8308" stroke="#7D89B0" stroke-width="2"/>
<line x1="295.93" y1="83.7899" x2="285.143" y2="77.562" stroke="#7D89B0" stroke-width="2"/>
<line x1="213.605" y1="80.8105" x2="201.15" y2="80.8105" stroke="#7D89B0" stroke-width="2"/>
<line x1="241.315" y1="81.9633" x2="229.048" y2="79.8004" stroke="#7D89B0" stroke-width="2"/>
<line x1="268.748" y1="83.0852" x2="257.043" y2="78.8251" stroke="#7D89B0" stroke-width="2"/>
<line x1="5.66132" y1="106.558" x2="11.8892" y2="95.7707" stroke="#7D89B0" stroke-width="2"/>
<line x1="32.4527" y1="106.025" x2="40.4591" y2="96.4836" stroke="#7D89B0" stroke-width="2"/>
<line x1="59.451" y1="105.124" x2="68.9926" y2="97.1172" stroke="#7D89B0" stroke-width="2"/>
<line x1="86.6836" y1="103.856" x2="97.4705" y2="97.6278" stroke="#7D89B0" stroke-width="2"/>
<line x1="114.178" y1="103.004" x2="125.882" y2="98.7436" stroke="#7D89B0" stroke-width="2"/>
<line x1="141.951" y1="101.791" x2="154.218" y2="99.6277" stroke="#7D89B0" stroke-width="2"/>
<line x1="267.902" y1="105.588" x2="257.115" y2="99.3599" stroke="#7D89B0" stroke-width="2"/>
<line x1="294.853" y1="106.656" x2="285.312" y2="98.6493" stroke="#7D89B0" stroke-width="2"/>
<line x1="185.578" y1="102.607" x2="173.122" y2="102.607" stroke="#7D89B0" stroke-width="2"/>
<line x1="213.287" y1="103.76" x2="201.021" y2="101.597" stroke="#7D89B0" stroke-width="2"/>
<line x1="240.724" y1="104.883" x2="229.02" y2="100.623" stroke="#7D89B0" stroke-width="2"/>
<line x1="4.42536" y1="127.823" x2="12.4317" y2="118.281" stroke="#7D89B0" stroke-width="2"/>
<line x1="31.4236" y1="126.92" x2="40.9652" y2="118.914" stroke="#7D89B0" stroke-width="2"/>
<line x1="58.6602" y1="125.654" x2="69.4471" y2="119.426" stroke="#7D89B0" stroke-width="2"/>
<line x1="86.1541" y1="124.802" x2="97.8586" y2="120.541" stroke="#7D89B0" stroke-width="2"/>
<line x1="113.928" y1="123.588" x2="126.194" y2="121.426" stroke="#7D89B0" stroke-width="2"/>
<line x1="239.879" y1="127.386" x2="229.092" y2="121.158" stroke="#7D89B0" stroke-width="2"/>
<line x1="266.826" y1="128.453" x2="257.284" y2="120.446" stroke="#7D89B0" stroke-width="2"/>
<line x1="293.578" y1="129.109" x2="285.571" y2="119.567" stroke="#7D89B0" stroke-width="2"/>
<line x1="157.555" y1="124.405" x2="145.099" y2="124.405" stroke="#7D89B0" stroke-width="2"/>
<line x1="185.264" y1="125.558" x2="172.997" y2="123.395" stroke="#7D89B0" stroke-width="2"/>
<line x1="212.701" y1="126.681" x2="200.996" y2="122.421" stroke="#7D89B0" stroke-width="2"/>
<line x1="3.40018" y1="148.718" x2="12.9418" y2="140.712" stroke="#7D89B0" stroke-width="2"/>
<line x1="30.6328" y1="147.45" x2="41.4198" y2="141.223" stroke="#7D89B0" stroke-width="2"/>
<line x1="58.1267" y1="146.598" x2="69.8313" y2="142.338" stroke="#7D89B0" stroke-width="2"/>
<line x1="85.9006" y1="145.385" x2="98.167" y2="143.222" stroke="#7D89B0" stroke-width="2"/>
<line x1="211.852" y1="149.182" x2="201.065" y2="142.955" stroke="#7D89B0" stroke-width="2"/>
<line x1="238.803" y1="150.25" x2="229.261" y2="142.244" stroke="#7D89B0" stroke-width="2"/>
<line x1="265.55" y1="150.905" x2="257.544" y2="141.364" stroke="#7D89B0" stroke-width="2"/>
<line x1="292.146" y1="151.152" x2="285.918" y2="140.365" stroke="#7D89B0" stroke-width="2"/>
<line x1="129.527" y1="146.203" x2="117.072" y2="146.203" stroke="#7D89B0" stroke-width="2"/>
<line x1="157.237" y1="147.355" x2="144.97" y2="145.192" stroke="#7D89B0" stroke-width="2"/>
<line x1="184.674" y1="148.478" x2="172.969" y2="144.218" stroke="#7D89B0" stroke-width="2"/>
<line x1="2.60938" y1="169.248" x2="13.3963" y2="163.02" stroke="#7D89B0" stroke-width="2"/>
<line x1="30.1033" y1="168.396" x2="41.8078" y2="164.136" stroke="#7D89B0" stroke-width="2"/>
<line x1="57.8771" y1="167.183" x2="70.1436" y2="165.02" stroke="#7D89B0" stroke-width="2"/>
<line x1="183.828" y1="170.98" x2="173.041" y2="164.752" stroke="#7D89B0" stroke-width="2"/>
<line x1="210.775" y1="172.048" x2="201.234" y2="164.042" stroke="#7D89B0" stroke-width="2"/>
<line x1="237.527" y1="172.703" x2="229.521" y2="163.162" stroke="#7D89B0" stroke-width="2"/>
<line x1="264.118" y1="172.949" x2="257.891" y2="162.162" stroke="#7D89B0" stroke-width="2"/>
<line x1="290.595" y1="173.181" x2="286.335" y2="161.476" stroke="#7D89B0" stroke-width="2"/>
<line x1="101.504" y1="168" x2="89.0482" y2="168" stroke="#7D89B0" stroke-width="2"/>
<line x1="129.213" y1="169.153" x2="116.947" y2="166.99" stroke="#7D89B0" stroke-width="2"/>
<line x1="156.65" y1="170.276" x2="144.946" y2="166.016" stroke="#7D89B0" stroke-width="2"/>
<line x1="2.07595" y1="190.193" x2="13.7805" y2="185.933" stroke="#7D89B0" stroke-width="2"/>
<line x1="29.8498" y1="188.981" x2="42.1163" y2="186.818" stroke="#7D89B0" stroke-width="2"/>
<line x1="155.801" y1="192.778" x2="145.014" y2="186.55" stroke="#7D89B0" stroke-width="2"/>
<line x1="182.752" y1="193.845" x2="173.21" y2="185.839" stroke="#7D89B0" stroke-width="2"/>
<line x1="209.503" y1="194.5" x2="201.497" y2="184.959" stroke="#7D89B0" stroke-width="2"/>
<line x1="236.095" y1="194.747" x2="229.867" y2="183.96" stroke="#7D89B0" stroke-width="2"/>
<line x1="262.568" y1="194.979" x2="258.308" y2="183.274" stroke="#7D89B0" stroke-width="2"/>
<line x1="288.976" y1="195.199" x2="286.813" y2="182.933" stroke="#7D89B0" stroke-width="2"/>
<line x1="73.4766" y1="189.798" x2="61.0209" y2="189.798" stroke="#7D89B0" stroke-width="2"/>
<line x1="101.186" y1="190.951" x2="88.9193" y2="188.788" stroke="#7D89B0" stroke-width="2"/>
<line x1="128.623" y1="192.073" x2="116.918" y2="187.812" stroke="#7D89B0" stroke-width="2"/>
<line x1="1.82635" y1="210.778" x2="14.0928" y2="208.615" stroke="#7D89B0" stroke-width="2"/>
<line x1="127.777" y1="214.575" x2="116.99" y2="208.347" stroke="#7D89B0" stroke-width="2"/>
<line x1="154.724" y1="215.643" x2="145.183" y2="207.637" stroke="#7D89B0" stroke-width="2"/>
<line x1="181.476" y1="216.298" x2="173.47" y2="206.756" stroke="#7D89B0" stroke-width="2"/>
<line x1="208.068" y1="216.545" x2="201.84" y2="205.758" stroke="#7D89B0" stroke-width="2"/>
<line x1="234.545" y1="216.776" x2="230.285" y2="205.071" stroke="#7D89B0" stroke-width="2"/>
<line x1="260.953" y1="216.997" x2="258.79" y2="204.73" stroke="#7D89B0" stroke-width="2"/>
<line x1="287.34" y1="216.823" x2="287.34" y2="204.368" stroke="#7D89B0" stroke-width="2"/>
<line x1="45.4531" y1="211.595" x2="32.9974" y2="211.595" stroke="#7D89B0" stroke-width="2"/>
<line x1="73.1623" y1="212.748" x2="60.8958" y2="210.585" stroke="#7D89B0" stroke-width="2"/>
<line x1="100.599" y1="213.87" x2="88.8949" y2="209.61" stroke="#7D89B0" stroke-width="2"/>
<line x1="99.75" y1="236.373" x2="88.9631" y2="230.145" stroke="#7D89B0" stroke-width="2"/>
<line x1="126.701" y1="237.44" x2="117.159" y2="229.434" stroke="#7D89B0" stroke-width="2"/>
<line x1="153.453" y1="238.096" x2="145.446" y2="228.554" stroke="#7D89B0" stroke-width="2"/>
<line x1="180.044" y1="238.342" x2="173.816" y2="227.555" stroke="#7D89B0" stroke-width="2"/>
<line x1="206.517" y1="238.573" x2="202.257" y2="226.869" stroke="#7D89B0" stroke-width="2"/>
<line x1="232.925" y1="238.794" x2="230.762" y2="226.527" stroke="#7D89B0" stroke-width="2"/>
<line x1="259.312" y1="238.62" x2="259.312" y2="226.164" stroke="#7D89B0" stroke-width="2"/>
<line x1="285.734" y1="238.446" x2="287.897" y2="226.18" stroke="#7D89B0" stroke-width="2"/>
<line x1="17.4258" y1="233.393" x2="4.97009" y2="233.393" stroke="#7D89B0" stroke-width="2"/>
<line x1="45.1349" y1="234.545" x2="32.8685" y2="232.382" stroke="#7D89B0" stroke-width="2"/>
<line x1="72.572" y1="235.668" x2="60.8675" y2="231.408" stroke="#7D89B0" stroke-width="2"/>
<line x1="284.205" y1="259.686" x2="288.465" y2="247.982" stroke="#7D89B0" stroke-width="2"/>
<line x1="71.7266" y1="258.17" x2="60.9396" y2="251.942" stroke="#7D89B0" stroke-width="2"/>
<line x1="98.6736" y1="259.238" x2="89.132" y2="251.231" stroke="#7D89B0" stroke-width="2"/>
<line x1="125.425" y1="259.893" x2="117.419" y2="250.351" stroke="#7D89B0" stroke-width="2"/>
<line x1="152.017" y1="260.14" x2="145.789" y2="249.353" stroke="#7D89B0" stroke-width="2"/>
<line x1="178.494" y1="260.37" x2="174.234" y2="248.666" stroke="#7D89B0" stroke-width="2"/>
<line x1="204.902" y1="260.592" x2="202.739" y2="248.325" stroke="#7D89B0" stroke-width="2"/>
<line x1="231.289" y1="260.418" x2="231.289" y2="247.962" stroke="#7D89B0" stroke-width="2"/>
<line x1="257.707" y1="260.244" x2="259.87" y2="247.978" stroke="#7D89B0" stroke-width="2"/>
<line x1="17.1115" y1="256.342" x2="4.84504" y2="254.179" stroke="#7D89B0" stroke-width="2"/>
<line x1="44.5486" y1="257.465" x2="32.8441" y2="253.205" stroke="#7D89B0" stroke-width="2"/>
<line x1="256.181" y1="281.484" x2="260.441" y2="269.78" stroke="#7D89B0" stroke-width="2"/>
<line x1="282.802" y1="280.937" x2="289.03" y2="270.15" stroke="#7D89B0" stroke-width="2"/>
<line x1="43.6992" y1="279.968" x2="32.9123" y2="273.74" stroke="#7D89B0" stroke-width="2"/>
<line x1="70.6502" y1="281.036" x2="61.1086" y2="273.029" stroke="#7D89B0" stroke-width="2"/>
<line x1="97.4019" y1="281.691" x2="89.3956" y2="272.149" stroke="#7D89B0" stroke-width="2"/>
<line x1="123.993" y1="281.937" x2="117.766" y2="271.15" stroke="#7D89B0" stroke-width="2"/>
<line x1="150.467" y1="282.168" x2="146.206" y2="270.464" stroke="#7D89B0" stroke-width="2"/>
<line x1="176.875" y1="282.389" x2="174.712" y2="270.123" stroke="#7D89B0" stroke-width="2"/>
<line x1="203.262" y1="282.216" x2="203.262" y2="269.76" stroke="#7D89B0" stroke-width="2"/>
<line x1="229.683" y1="282.042" x2="231.846" y2="269.776" stroke="#7D89B0" stroke-width="2"/>
<line x1="16.5213" y1="279.263" x2="4.81674" y2="275.003" stroke="#7D89B0" stroke-width="2"/>
<line x1="228.154" y1="303.282" x2="232.414" y2="291.577" stroke="#7D89B0" stroke-width="2"/>
<line x1="254.779" y1="302.734" x2="261.006" y2="291.947" stroke="#7D89B0" stroke-width="2"/>
<line x1="281.57" y1="302.202" x2="289.576" y2="292.66" stroke="#7D89B0" stroke-width="2"/>
<line x1="15.6758" y1="301.765" x2="4.88883" y2="295.538" stroke="#7D89B0" stroke-width="2"/>
<line x1="42.6228" y1="302.832" x2="33.0812" y2="294.826" stroke="#7D89B0" stroke-width="2"/>
<line x1="69.3746" y1="303.488" x2="61.3682" y2="293.946" stroke="#7D89B0" stroke-width="2"/>
<line x1="95.966" y1="303.734" x2="89.7382" y2="292.947" stroke="#7D89B0" stroke-width="2"/>
<line x1="122.443" y1="303.966" x2="118.183" y2="292.262" stroke="#7D89B0" stroke-width="2"/>
<line x1="148.851" y1="304.186" x2="146.688" y2="291.92" stroke="#7D89B0" stroke-width="2"/>
<line x1="175.238" y1="304.013" x2="175.238" y2="291.557" stroke="#7D89B0" stroke-width="2"/>
<line x1="201.656" y1="303.839" x2="203.819" y2="291.573" stroke="#7D89B0" stroke-width="2"/>
<line x1="200.131" y1="325.079" x2="204.391" y2="313.374" stroke="#7D89B0" stroke-width="2"/>
<line x1="226.751" y1="324.532" x2="232.979" y2="313.745" stroke="#7D89B0" stroke-width="2"/>
<line x1="253.543" y1="324" x2="261.549" y2="314.458" stroke="#7D89B0" stroke-width="2"/>
<line x1="280.541" y1="323.098" x2="290.082" y2="315.092" stroke="#7D89B0" stroke-width="2"/>
<line x1="14.5994" y1="324.63" x2="5.05778" y2="316.624" stroke="#7D89B0" stroke-width="2"/>
<line x1="41.3511" y1="325.285" x2="33.3448" y2="315.744" stroke="#7D89B0" stroke-width="2"/>
<line x1="67.9426" y1="325.532" x2="61.7147" y2="314.745" stroke="#7D89B0" stroke-width="2"/>
<line x1="94.4158" y1="325.763" x2="90.1557" y2="314.058" stroke="#7D89B0" stroke-width="2"/>
<line x1="120.824" y1="325.984" x2="118.661" y2="313.718" stroke="#7D89B0" stroke-width="2"/>
<line x1="147.211" y1="325.811" x2="147.211" y2="313.355" stroke="#7D89B0" stroke-width="2"/>
<line x1="173.632" y1="325.637" x2="175.795" y2="313.37" stroke="#7D89B0" stroke-width="2"/>
</g>
</svg>
