<svg width="14" height="14" viewBox="0 0 14 14" fill="none" xmlns="http://www.w3.org/2000/svg">
<g id="share-07" clip-path="url(#clip0_317_931)">
<path id="Icon" d="M5.14016 7.82368L8.86561 9.99459M8.86015 4.0055L5.14016 6.17641M11.9092 3.18186C11.9092 4.0856 11.1766 4.81823 10.2729 4.81823C9.36914 4.81823 8.63652 4.0856 8.63652 3.18186C8.63652 2.27812 9.36914 1.5455 10.2729 1.5455C11.1766 1.5455 11.9092 2.27812 11.9092 3.18186ZM5.36379 7.00005C5.36379 7.90378 4.63117 8.63641 3.72743 8.63641C2.82369 8.63641 2.09106 7.90378 2.09106 7.00005C2.09106 6.09631 2.82369 5.36368 3.72743 5.36368C4.63117 5.36368 5.36379 6.09631 5.36379 7.00005ZM11.9092 10.8182C11.9092 11.722 11.1766 12.4546 10.2729 12.4546C9.36914 12.4546 8.63652 11.722 8.63652 10.8182C8.63652 9.91449 9.36914 9.18186 10.2729 9.18186C11.1766 9.18186 11.9092 9.91449 11.9092 10.8182Z" stroke="#667085" stroke-width="2" stroke-linecap="round" stroke-linejoin="round"/>
</g>
<defs>
<clipPath id="clip0_317_931">
<rect width="13.0909" height="13.0909" fill="white" transform="translate(0.45459 0.45459)"/>
</clipPath>
</defs>
</svg>
